<svg xmlns="http://www.w3.org/2000/svg" viewBox="0 0 800 450" width="100%" height="100%">
  <defs>
    <linearGradient id="bg" x1="0%" y1="0%" x2="100%" y2="100%">
      <stop offset="0%" stop-color="#090514"/>
      <stop offset="50%" stop-color="#120c24"/>
      <stop offset="100%" stop-color="#1e0f38"/>
    </linearGradient>
    <linearGradient id="crypticGlow" x1="0%" y1="0%" x2="100%" y2="0%">
      <stop offset="0%" stop-color="#00f5d4"/>
      <stop offset="100%" stop-color="#7b2cbf"/>
    </linearGradient>
  </defs>
  <rect width="800" height="450" fill="url(#bg)"/>
  <rect x="20" y="20" width="760" height="410" rx="16" fill="none" stroke="url(#crypticGlow)" stroke-width="2" opacity="0.6"/>
  <!-- Catacombs Arch Silhouette -->
  <path d="M300 320 V200 C300 130 500 130 500 200 V320 Z" fill="#0d071b" stroke="url(#crypticGlow)" stroke-width="3"/>
  <path d="M340 320 V220 C340 170 460 170 460 220 V320 Z" fill="#06030c"/>
  <!-- Glowing Runes & Skull -->
  <circle cx="400" cy="210" r="22" fill="none" stroke="#00f5d4" stroke-width="2"/>
  <path d="M390 205 Q400 195 410 205 T390 205" fill="none" stroke="#00f5d4" stroke-width="2"/>
  <circle cx="393" cy="208" r="2" fill="#00f5d4"/>
  <circle cx="407" cy="208" r="2" fill="#00f5d4"/>
  <!-- Particles -->
  <circle cx="250" cy="160" r="5" fill="#00f5d4" opacity="0.8"/>
  <circle cx="550" cy="180" r="6" fill="#9d4edd" opacity="0.8"/>
  <circle cx="280" cy="280" r="4" fill="#7b2cbf" opacity="0.6"/>
  <circle cx="520" cy="270" r="5" fill="#00f5d4" opacity="0.7"/>
  <text x="400" y="365" font-family="system-ui, sans-serif" font-size="28" font-weight="900" fill="url(#crypticGlow)" text-anchor="middle" letter-spacing="4">CRYPTIC CATACOMBS</text>
  <text x="400" y="395" font-family="system-ui, sans-serif" font-size="13" font-weight="700" fill="#00f5d4" text-anchor="middle" letter-spacing="2">[ NUEVA ESTRUCTURA DEL DÍA 10 ]</text>
</svg>
